<svg xmlns="http://www.w3.org/2000/svg" version="1.1" xmlns:xlink="http://www.w3.org/1999/xlink" xmlns:svgjs="http://svgjs.dev/svgjs" width="128" height="128" viewBox="0 0 128 128"><g transform="matrix(0.8046875,0,0,0.8046875,12.5,12.5)"><svg viewBox="0 0 200 200" data-background-color="#ffffff" preserveAspectRatio="xMidYMid meet" height="128" width="128" xmlns="http://www.w3.org/2000/svg" xmlns:xlink="http://www.w3.org/1999/xlink"><g id="tight-bounds" transform="matrix(1,0,0,1,0,0)"><svg viewBox="0 0 200 200" height="200" width="200"><g><svg></svg></g><g><svg viewBox="0 0 200 200" height="200" width="200"><g><path d="M0 100c0-55.228 44.772-100 100-100 55.228 0 100 44.772 100 100 0 55.228-44.772 100-100 100-55.228 0-100-44.772-100-100z" fill="#c10000" fill-rule="nonzero" stroke="none" stroke-width="1" stroke-linecap="butt" stroke-linejoin="miter" stroke-miterlimit="10" stroke-dasharray="" stroke-dashoffset="0" font-family="none" font-weight="none" font-size="none" text-anchor="none" style="mix-blend-mode: normal" data-fill-palette-color="tertiary"></path></g><g transform="matrix(1,0,0,1,85.55979636145841,69.1)"><svg viewBox="0 0 28.880407277083183 61.8" height="61.8" width="28.880407277083183"><g><svg viewBox="0 0 28.880407277083183 61.8" height="61.8" width="28.880407277083183"><g><svg viewBox="0 0 28.880407277083183 61.8" height="61.8" width="28.880407277083183"><g id="textblocktransform"><svg viewBox="0 0 28.880407277083183 61.8" height="61.8" width="28.880407277083183" id="textblock"><g><svg viewBox="0 0 28.880407277083183 61.8" height="61.8" width="28.880407277083183"><g transform="matrix(1,0,0,1,0,0)"><svg width="28.880407277083183" viewBox="2.1 -35.05 16.426302041634997 35.15" height="61.8" data-palette-color="#ffffff"><path d="M16.7 0.1L16.7 0.1Q16 0.1 15.3 0.05 14.6 0 13.85-0.05L13.85-0.05Q13.35-2.95 12.78-5.38 12.2-7.8 11.58-9.75 10.95-11.7 10.13-13.23 9.3-14.75 8.25-15.9L8.25-15.9Q7.6-16.55 6.83-16.95 6.05-17.35 5.3-17.55L5.3-17.55 5.3-18.25 14.15-34.75Q14.85-34.95 15.55-35 16.25-35.05 16.75-35.05L16.75-35.05Q19-35.05 18.4-33.85L18.4-33.85 10.35-19.9Q13.35-17.65 15.35-12.88 17.35-8.1 18.35-0.9L18.35-0.9Q18.4-0.35 18.07-0.13 17.75 0.1 16.7 0.1ZM2.1 0L2.1 0 2.1-34.2Q2.1-34.6 2.27-34.75 2.45-34.9 3.3-34.95 4.15-35 6.2-35L6.2-35 6.2-0.8Q6.2-0.4 6.05-0.25 5.9-0.1 5.03-0.05 4.15 0 2.1 0Z" opacity="1" transform="matrix(1,0,0,1,0,0)" fill="#ffffff" class="wordmark-text-0" data-fill-palette-color="quaternary" id="text-0"></path></svg></g></svg></g></svg></g></svg></g><g></g></svg></g></svg></g></svg></g><defs></defs></svg><rect width="200" height="200" fill="none" stroke="none" visibility="hidden"></rect></g></svg></g></svg>